FFmpeg version SVN-r25716, Copyright (c) 2000-2010 the FFmpeg developers  built on Nov 10 2010 12:23:18 with gcc 4.1.2 20080704 (Red Hat 4.1.2-48)  configuration: --enable-libmp3lame --enable-shared --disable-mmx --arch=x86_64  libavutil     50.33. 0 / 50.33. 0  libavcore      0.12. 1 /  0.12. 1  libavcodec    52.94. 4 / 52.94. 4  libavformat   52.84. 0 / 52.84. 0  libavdevice   52. 2. 2 / 52. 2. 2  libavfilter    1.59. 0 /  1.59. 0  libswscale     0.12. 0 /  0.12. 0Seems stream 0 codec frame rate differs from container frame rate: 5994.00 (5994/1) -> 29.97 (2997/100)Input #0, mov,mp4,m4a,3gp,3g2,mj2, from '/RAID10/data/converted_video_files/12432.mov':  Metadata:    major_brand     : qt      minor_version   : 537199360    compatible_brands: qt    Duration: 00:00:51.58, start: 0.000000, bitrate: 1680 kb/s    Stream #0.0(eng): Video: h264, yuv420p, 960x540, 1676 kb/s, 29.97 fps, 29.97 tbr, 2997 tbn, 5994 tbc[buffer @ 0x5e71d00] w:960 h:540 pixfmt:yuv420pOutput #0, flv, to '/RAID10/data/converted_video_files/12432.flv':  Metadata:    encoder         : Lavf52.84.0    Stream #0.0(eng): Video: flv, yuv420p, 960x540, q=2-31, 600 kb/s, 1k tbn, 24 tbcStream mapping:  Stream #0.0 -> #0.0Press [q] to stop encodingframe=   56 fps=  0 q=2.0 size=     297kB time=2.33 bitrate=1042.6kbits/s dup=0 drop=14    frame=  100 fps= 98 q=2.0 size=     632kB time=4.17 bitrate=1242.0kbits/s dup=0 drop=24    frame=  145 fps= 94 q=11.0 size=     859kB time=6.04 bitrate=1164.7kbits/s dup=0 drop=36    frame=  189 fps= 92 q=17.3 size=     968kB time=7.88 bitrate=1006.8kbits/s dup=0 drop=47    frame=  232 fps= 89 q=17.7 size=    1095kB time=9.67 bitrate= 927.7kbits/s dup=0 drop=57    frame=  263 fps= 86 q=16.5 size=    1168kB time=10.96 bitrate= 873.0kbits/s dup=0 drop=65    frame=  305 fps= 86 q=17.8 size=    1297kB time=12.71 bitrate= 835.9kbits/s dup=0 drop=76    frame=  347 fps= 86 q=16.2 size=    1406kB time=14.46 bitrate= 796.7kbits/s dup=0 drop=86    frame=  391 fps= 86 q=16.8 size=    1539kB time=16.29 bitrate= 774.0kbits/s dup=0 drop=97    frame=  431 fps= 85 q=14.2 size=    1647kB time=17.96 bitrate= 751.4kbits/s dup=0 drop=107    frame=  468 fps= 81 q=14.7 size=    1753kB time=19.50 bitrate= 736.5kbits/s dup=0 drop=116    frame=  483 fps= 80 q=15.7 size=    1814kB time=20.12 bitrate= 738.2kbits/s dup=0 drop=120    frame=  527 fps= 80 q=14.8 size=    1930kB time=21.96 bitrate= 720.0kbits/s dup=0 drop=131    frame=  567 fps= 80 q=14.3 size=    2064kB time=23.62 bitrate= 715.6kbits/s dup=0 drop=141    frame=  607 fps= 80 q=14.1 size=    2177kB time=25.29 bitrate= 705.0kbits/s dup=0 drop=150    frame=  650 fps= 80 q=15.0 size=    2315kB time=27.08 bitrate= 700.4kbits/s dup=0 drop=161    frame=  694 fps= 81 q=14.0 size=    2433kB time=28.92 bitrate= 689.2kbits/s dup=0 drop=172    frame=  737 fps= 81 q=15.0 size=    2572kB time=30.71 bitrate= 686.1kbits/s dup=0 drop=183    frame=  780 fps= 81 q=14.4 size=    2690kB time=32.50 bitrate= 678.1kbits/s dup=0 drop=194    frame=  819 fps= 81 q=14.4 size=    2824kB time=34.12 bitrate= 677.9kbits/s dup=0 drop=203    frame=  858 fps= 80 q=14.8 size=    2937kB time=35.75 bitrate= 673.1kbits/s dup=0 drop=213    frame=  896 fps= 81 q=13.8 size=    3050kB time=37.33 bitrate= 669.3kbits/s dup=0 drop=222    frame=  939 fps= 81 q=14.3 size=    3192kB time=39.12 bitrate= 668.3kbits/s dup=0 drop=233    frame=  981 fps= 80 q=14.6 size=    3308kB time=40.88 bitrate= 662.9kbits/s dup=0 drop=244    frame= 1019 fps= 81 q=14.7 size=    3420kB time=42.46 bitrate= 659.9kbits/s dup=0 drop=253    frame= 1061 fps= 81 q=14.8 size=    3560kB time=44.21 bitrate= 659.7kbits/s dup=0 drop=263    frame= 1098 fps= 80 q=14.3 size=    3671kB time=45.75 bitrate= 657.3kbits/s dup=0 drop=273    frame= 1137 fps= 80 q=14.5 size=    3785kB time=47.38 bitrate= 654.5kbits/s dup=0 drop=282    frame= 1180 fps= 81 q=15.5 size=    3926kB time=49.17 bitrate= 654.1kbits/s dup=0 drop=293    frame= 1227 fps= 81 q=20.1 size=    4091kB time=51.12 bitrate= 655.5kbits/s dup=0 drop=305    frame= 1238 fps= 81 q=24.7 Lsize=    4122kB time=51.58 bitrate= 654.6kbits/s dup=0 drop=308    video:4102kB audio:0kB global headers:0kB muxing overhead 0.476535%